<svg version="1.2" xmlns="http://www.w3.org/2000/svg" viewBox="0 0 1823 45" width="1823" height="45"><style>.a{fill:#fff}.b{fill:#303030}.c{fill:#e74c3c}</style><g style="opacity:.3"><path class="a" d="m3 0h41c1.1 0 2 0.9 2 2v41c0 1.1-0.9 2-2 2h-41c-1.1 0-2-0.9-2-2v-41c0-1.1 0.9-2 2-2z"/><path class="b" d="m28.8 14.7q0-0.2-0.2-0.4l-1-1c-0.1-0.1-0.3-0.2-0.4-0.2-0.2 0-0.4 0.1-0.5 0.2l-9.3 9.3c-0.2 0.1-0.2 0.3-0.2 0.5 0 0.1 0 0.3 0.2 0.4l9.3 9.4c0.1 0.1 0.3 0.2 0.5 0.2 0.1 0 0.3-0.1 0.4-0.2l1-1c0.2-0.1 0.2-0.3 0.2-0.5 0-0.1 0-0.3-0.2-0.4l-7.8-7.9 7.8-7.9c0.2-0.1 0.2-0.3 0.2-0.5z"/></g><path class="c" d="m1780 0h41c1.1 0 2 0.9 2 2v41c0 1.1-0.9 2-2 2h-41c-1.1 0-2-0.9-2-2v-41c0-1.1 0.9-2 2-2z"/><path class="a" d="m1795.2 30.3q0 0.2 0.2 0.4l1 1c0.1 0.1 0.3 0.2 0.4 0.2 0.2 0 0.4-0.1 0.5-0.2l9.3-9.3c0.2-0.1 0.2-0.3 0.2-0.5 0-0.1 0-0.3-0.2-0.4l-9.3-9.4c-0.1-0.1-0.3-0.2-0.5-0.2-0.1 0-0.3 0.1-0.4 0.2l-1 1c-0.2 0.1-0.2 0.3-0.2 0.5 0 0.1 0 0.3 0.2 0.4l7.8 7.9-7.8 7.9c-0.2 0.1-0.2 0.3-0.2 0.5z"/></svg>